<mxfile host="app.diagrams.net" agent="Mozilla/5.0 (Windows NT 10.0; Win64; x64) AppleWebKit/537.36 (KHTML, like Gecko) Chrome/130.0.0.0 Safari/537.36" version="24.8.6">
  <diagram name="1 oldal" id="9vh7eyJ1dwKk6i9vnTL6">
    <mxGraphModel dx="1126" dy="520" grid="1" gridSize="10" guides="1" tooltips="1" connect="1" arrows="1" fold="1" page="1" pageScale="1" pageWidth="827" pageHeight="1169" math="0" shadow="0">
      <root>
        <mxCell id="0" />
        <mxCell id="1" parent="0" />
        <mxCell id="SWTcsgD4l01JTWnC3AS4-1" value="Személy" style="rounded=0;whiteSpace=wrap;html=1;" parent="1" vertex="1">
          <mxGeometry x="392.5" y="281.67" width="95" height="30" as="geometry" />
        </mxCell>
        <mxCell id="SWTcsgD4l01JTWnC3AS4-3" value="név" style="ellipse;whiteSpace=wrap;html=1;" parent="1" vertex="1">
          <mxGeometry x="110" y="321.67" width="80" height="40" as="geometry" />
        </mxCell>
        <mxCell id="SWTcsgD4l01JTWnC3AS4-4" value="&lt;div&gt;vezetéknév&lt;/div&gt;" style="ellipse;whiteSpace=wrap;html=1;" parent="1" vertex="1">
          <mxGeometry y="361.67" width="80" height="40" as="geometry" />
        </mxCell>
        <mxCell id="SWTcsgD4l01JTWnC3AS4-5" value="&lt;div&gt;keresztnév&lt;/div&gt;" style="ellipse;whiteSpace=wrap;html=1;" parent="1" vertex="1">
          <mxGeometry y="281.67" width="80" height="40" as="geometry" />
        </mxCell>
        <mxCell id="SWTcsgD4l01JTWnC3AS4-6" value="" style="endArrow=none;html=1;rounded=0;exitX=1;exitY=0.5;exitDx=0;exitDy=0;entryX=0;entryY=1;entryDx=0;entryDy=0;" parent="1" source="SWTcsgD4l01JTWnC3AS4-3" target="SWTcsgD4l01JTWnC3AS4-1" edge="1">
          <mxGeometry width="50" height="50" relative="1" as="geometry">
            <mxPoint x="390" y="310" as="sourcePoint" />
            <mxPoint x="440" y="260" as="targetPoint" />
          </mxGeometry>
        </mxCell>
        <mxCell id="SWTcsgD4l01JTWnC3AS4-7" value="" style="endArrow=none;html=1;rounded=0;exitX=0;exitY=0.5;exitDx=0;exitDy=0;entryX=1;entryY=0.5;entryDx=0;entryDy=0;" parent="1" source="SWTcsgD4l01JTWnC3AS4-3" target="SWTcsgD4l01JTWnC3AS4-5" edge="1">
          <mxGeometry width="50" height="50" relative="1" as="geometry">
            <mxPoint x="380" y="301.67" as="sourcePoint" />
            <mxPoint x="430" y="251.67" as="targetPoint" />
          </mxGeometry>
        </mxCell>
        <mxCell id="SWTcsgD4l01JTWnC3AS4-8" value="" style="endArrow=none;html=1;rounded=0;entryX=1;entryY=0.5;entryDx=0;entryDy=0;exitX=0;exitY=0.5;exitDx=0;exitDy=0;" parent="1" source="SWTcsgD4l01JTWnC3AS4-3" target="SWTcsgD4l01JTWnC3AS4-4" edge="1">
          <mxGeometry width="50" height="50" relative="1" as="geometry">
            <mxPoint x="110" y="351.67" as="sourcePoint" />
            <mxPoint x="90" y="311.67" as="targetPoint" />
          </mxGeometry>
        </mxCell>
        <mxCell id="SWTcsgD4l01JTWnC3AS4-9" value="nem" style="ellipse;whiteSpace=wrap;html=1;" parent="1" vertex="1">
          <mxGeometry x="150" y="361.67" width="80" height="40" as="geometry" />
        </mxCell>
        <mxCell id="SWTcsgD4l01JTWnC3AS4-10" value="születési dátum" style="ellipse;whiteSpace=wrap;html=1;" parent="1" vertex="1">
          <mxGeometry x="190" y="401.67" width="80" height="40" as="geometry" />
        </mxCell>
        <mxCell id="SWTcsgD4l01JTWnC3AS4-12" value="" style="endArrow=none;html=1;rounded=0;entryX=0;entryY=1;entryDx=0;entryDy=0;exitX=1;exitY=0.5;exitDx=0;exitDy=0;" parent="1" source="SWTcsgD4l01JTWnC3AS4-9" target="SWTcsgD4l01JTWnC3AS4-1" edge="1">
          <mxGeometry width="50" height="50" relative="1" as="geometry">
            <mxPoint x="360" y="400" as="sourcePoint" />
            <mxPoint x="410" y="350" as="targetPoint" />
          </mxGeometry>
        </mxCell>
        <mxCell id="SWTcsgD4l01JTWnC3AS4-15" value="" style="endArrow=none;html=1;rounded=0;entryX=0;entryY=1;entryDx=0;entryDy=0;exitX=1;exitY=0.5;exitDx=0;exitDy=0;" parent="1" source="SWTcsgD4l01JTWnC3AS4-10" target="SWTcsgD4l01JTWnC3AS4-1" edge="1">
          <mxGeometry width="50" height="50" relative="1" as="geometry">
            <mxPoint x="250" y="440" as="sourcePoint" />
            <mxPoint x="390" y="320" as="targetPoint" />
          </mxGeometry>
        </mxCell>
        <mxCell id="SWTcsgD4l01JTWnC3AS4-16" value="Anyja" style="rhombus;whiteSpace=wrap;html=1;" parent="1" vertex="1">
          <mxGeometry x="270" y="271.67" width="70" height="50" as="geometry" />
        </mxCell>
        <mxCell id="SWTcsgD4l01JTWnC3AS4-17" value="Apja" style="rhombus;whiteSpace=wrap;html=1;" parent="1" vertex="1">
          <mxGeometry x="530" y="271.67" width="70" height="50" as="geometry" />
        </mxCell>
        <mxCell id="SWTcsgD4l01JTWnC3AS4-18" value="" style="endArrow=none;html=1;rounded=0;exitX=1;exitY=0.5;exitDx=0;exitDy=0;entryX=0;entryY=0.5;entryDx=0;entryDy=0;" parent="1" source="SWTcsgD4l01JTWnC3AS4-16" target="SWTcsgD4l01JTWnC3AS4-1" edge="1">
          <mxGeometry width="50" height="50" relative="1" as="geometry">
            <mxPoint x="360" y="280" as="sourcePoint" />
            <mxPoint x="410" y="230" as="targetPoint" />
          </mxGeometry>
        </mxCell>
        <mxCell id="SWTcsgD4l01JTWnC3AS4-20" value="" style="endArrow=none;html=1;rounded=0;exitX=1;exitY=0.5;exitDx=0;exitDy=0;entryX=0;entryY=0.5;entryDx=0;entryDy=0;" parent="1" source="SWTcsgD4l01JTWnC3AS4-1" target="SWTcsgD4l01JTWnC3AS4-17" edge="1">
          <mxGeometry width="50" height="50" relative="1" as="geometry">
            <mxPoint x="296" y="283" as="sourcePoint" />
            <mxPoint x="380" y="280" as="targetPoint" />
          </mxGeometry>
        </mxCell>
        <mxCell id="SWTcsgD4l01JTWnC3AS4-21" value="" style="endArrow=classic;html=1;rounded=0;exitX=0.5;exitY=0;exitDx=0;exitDy=0;entryX=0.25;entryY=0;entryDx=0;entryDy=0;" parent="1" source="SWTcsgD4l01JTWnC3AS4-16" target="SWTcsgD4l01JTWnC3AS4-1" edge="1">
          <mxGeometry width="50" height="50" relative="1" as="geometry">
            <mxPoint x="360" y="280" as="sourcePoint" />
            <mxPoint x="370" y="240" as="targetPoint" />
            <Array as="points">
              <mxPoint x="305" y="240" />
              <mxPoint x="416" y="240" />
            </Array>
          </mxGeometry>
        </mxCell>
        <mxCell id="SWTcsgD4l01JTWnC3AS4-22" value="" style="endArrow=classic;html=1;rounded=0;exitX=0.5;exitY=0;exitDx=0;exitDy=0;" parent="1" source="SWTcsgD4l01JTWnC3AS4-17" edge="1">
          <mxGeometry width="50" height="50" relative="1" as="geometry">
            <mxPoint x="210" y="250" as="sourcePoint" />
            <mxPoint x="460" y="280" as="targetPoint" />
            <Array as="points">
              <mxPoint x="565" y="240" />
              <mxPoint x="460" y="240" />
            </Array>
          </mxGeometry>
        </mxCell>
        <mxCell id="SWTcsgD4l01JTWnC3AS4-32" value="mikor" style="ellipse;whiteSpace=wrap;html=1;" parent="1" vertex="1">
          <mxGeometry x="490.01" y="510" width="80" height="40" as="geometry" />
        </mxCell>
        <mxCell id="SWTcsgD4l01JTWnC3AS4-33" value="jelleg" style="ellipse;whiteSpace=wrap;html=1;" parent="1" vertex="1">
          <mxGeometry x="400.01" y="520" width="80" height="40" as="geometry" />
        </mxCell>
        <mxCell id="SWTcsgD4l01JTWnC3AS4-34" value="" style="endArrow=none;html=1;rounded=0;entryX=0.5;entryY=1;entryDx=0;entryDy=0;exitX=0.5;exitY=0;exitDx=0;exitDy=0;" parent="1" source="SWTcsgD4l01JTWnC3AS4-33" edge="1">
          <mxGeometry width="50" height="50" relative="1" as="geometry">
            <mxPoint x="330" y="450" as="sourcePoint" />
            <mxPoint x="440" y="490" as="targetPoint" />
          </mxGeometry>
        </mxCell>
        <mxCell id="SWTcsgD4l01JTWnC3AS4-35" value="" style="endArrow=none;html=1;rounded=0;entryX=0.5;entryY=1;entryDx=0;entryDy=0;exitX=0.5;exitY=0;exitDx=0;exitDy=0;" parent="1" source="SWTcsgD4l01JTWnC3AS4-32" edge="1">
          <mxGeometry width="50" height="50" relative="1" as="geometry">
            <mxPoint x="440" y="600" as="sourcePoint" />
            <mxPoint x="440" y="490" as="targetPoint" />
          </mxGeometry>
        </mxCell>
        <mxCell id="SWTcsgD4l01JTWnC3AS4-38" value="" style="endArrow=none;html=1;rounded=0;entryX=0.5;entryY=1;entryDx=0;entryDy=0;exitX=0.5;exitY=0;exitDx=0;exitDy=0;" parent="1" source="SWTcsgD4l01JTWnC3AS4-37" target="SWTcsgD4l01JTWnC3AS4-1" edge="1">
          <mxGeometry width="50" height="50" relative="1" as="geometry">
            <mxPoint x="470" y="350" as="sourcePoint" />
            <mxPoint x="440" y="360" as="targetPoint" />
          </mxGeometry>
        </mxCell>
        <mxCell id="SWTcsgD4l01JTWnC3AS4-41" value="Felhasználó" style="rounded=0;whiteSpace=wrap;html=1;" parent="1" vertex="1">
          <mxGeometry x="750" y="80" width="95" height="30" as="geometry" />
        </mxCell>
        <mxCell id="SWTcsgD4l01JTWnC3AS4-42" value="&lt;u&gt;id&lt;/u&gt;" style="ellipse;whiteSpace=wrap;html=1;" parent="1" vertex="1">
          <mxGeometry x="670" y="170" width="80" height="40" as="geometry" />
        </mxCell>
        <mxCell id="SWTcsgD4l01JTWnC3AS4-43" value="név" style="ellipse;whiteSpace=wrap;html=1;" parent="1" vertex="1">
          <mxGeometry x="757.5" y="200" width="80" height="40" as="geometry" />
        </mxCell>
        <mxCell id="SWTcsgD4l01JTWnC3AS4-45" value="jelszó" style="ellipse;whiteSpace=wrap;html=1;" parent="1" vertex="1">
          <mxGeometry x="845" y="170" width="80" height="40" as="geometry" />
        </mxCell>
        <mxCell id="SWTcsgD4l01JTWnC3AS4-46" value="" style="endArrow=none;html=1;rounded=0;entryX=0.5;entryY=1;entryDx=0;entryDy=0;exitX=1;exitY=0;exitDx=0;exitDy=0;" parent="1" source="SWTcsgD4l01JTWnC3AS4-42" target="SWTcsgD4l01JTWnC3AS4-41" edge="1">
          <mxGeometry width="50" height="50" relative="1" as="geometry">
            <mxPoint x="715" y="170" as="sourcePoint" />
            <mxPoint x="445" y="270" as="targetPoint" />
          </mxGeometry>
        </mxCell>
        <mxCell id="SWTcsgD4l01JTWnC3AS4-47" value="" style="endArrow=none;html=1;rounded=0;exitX=0.5;exitY=0;exitDx=0;exitDy=0;entryX=0.5;entryY=1;entryDx=0;entryDy=0;" parent="1" source="SWTcsgD4l01JTWnC3AS4-43" target="SWTcsgD4l01JTWnC3AS4-41" edge="1">
          <mxGeometry width="50" height="50" relative="1" as="geometry">
            <mxPoint x="725" y="180" as="sourcePoint" />
            <mxPoint x="795" y="140" as="targetPoint" />
          </mxGeometry>
        </mxCell>
        <mxCell id="SWTcsgD4l01JTWnC3AS4-48" value="" style="endArrow=none;html=1;rounded=0;exitX=0.5;exitY=0;exitDx=0;exitDy=0;entryX=0.5;entryY=1;entryDx=0;entryDy=0;" parent="1" source="SWTcsgD4l01JTWnC3AS4-45" target="SWTcsgD4l01JTWnC3AS4-41" edge="1">
          <mxGeometry width="50" height="50" relative="1" as="geometry">
            <mxPoint x="735" y="190" as="sourcePoint" />
            <mxPoint x="795" y="140" as="targetPoint" />
          </mxGeometry>
        </mxCell>
        <mxCell id="VMeZs3ygDT83MNl5--wN-6" value="" style="group" parent="1" vertex="1" connectable="0">
          <mxGeometry x="388.89" y="361.67" width="100" height="61.67" as="geometry" />
        </mxCell>
        <mxCell id="SWTcsgD4l01JTWnC3AS4-37" value="Esemény&lt;div&gt;része&lt;/div&gt;" style="rhombus;whiteSpace=wrap;html=1;" parent="VMeZs3ygDT83MNl5--wN-6" vertex="1">
          <mxGeometry x="7.14" width="85.71" height="58.24" as="geometry" />
        </mxCell>
        <mxCell id="VMeZs3ygDT83MNl5--wN-7" value="" style="group" parent="1" vertex="1" connectable="0">
          <mxGeometry x="390" y="460" width="100" height="30" as="geometry" />
        </mxCell>
        <mxCell id="SWTcsgD4l01JTWnC3AS4-30" value="Esemény" style="rounded=0;whiteSpace=wrap;html=1;" parent="VMeZs3ygDT83MNl5--wN-7" vertex="1">
          <mxGeometry width="100" height="30" as="geometry" />
        </mxCell>
        <mxCell id="VMeZs3ygDT83MNl5--wN-8" value="&lt;u&gt;id&lt;/u&gt;" style="ellipse;whiteSpace=wrap;html=1;" parent="1" vertex="1">
          <mxGeometry x="230" y="441.67" width="80" height="40" as="geometry" />
        </mxCell>
        <mxCell id="VMeZs3ygDT83MNl5--wN-9" value="" style="endArrow=none;html=1;rounded=0;entryX=0;entryY=1;entryDx=0;entryDy=0;exitX=1;exitY=0.5;exitDx=0;exitDy=0;" parent="1" source="VMeZs3ygDT83MNl5--wN-8" target="SWTcsgD4l01JTWnC3AS4-1" edge="1">
          <mxGeometry width="50" height="50" relative="1" as="geometry">
            <mxPoint x="290" y="440" as="sourcePoint" />
            <mxPoint x="403" y="322" as="targetPoint" />
          </mxGeometry>
        </mxCell>
        <mxCell id="VMeZs3ygDT83MNl5--wN-10" value="Családfa" style="rounded=0;whiteSpace=wrap;html=1;" parent="1" vertex="1">
          <mxGeometry x="391.39" y="80" width="95" height="30" as="geometry" />
        </mxCell>
        <mxCell id="VMeZs3ygDT83MNl5--wN-11" value="&lt;u&gt;id&lt;/u&gt;" style="ellipse;whiteSpace=wrap;html=1;" parent="1" vertex="1">
          <mxGeometry x="220" y="80" width="80" height="40" as="geometry" />
        </mxCell>
        <mxCell id="VMeZs3ygDT83MNl5--wN-12" value="" style="endArrow=none;html=1;rounded=0;exitX=1;exitY=0.5;exitDx=0;exitDy=0;entryX=0;entryY=0.5;entryDx=0;entryDy=0;" parent="1" source="VMeZs3ygDT83MNl5--wN-11" target="VMeZs3ygDT83MNl5--wN-10" edge="1">
          <mxGeometry width="50" height="50" relative="1" as="geometry">
            <mxPoint x="200" y="352" as="sourcePoint" />
            <mxPoint x="403" y="322" as="targetPoint" />
          </mxGeometry>
        </mxCell>
        <mxCell id="VMeZs3ygDT83MNl5--wN-13" value="név" style="ellipse;whiteSpace=wrap;html=1;" parent="1" vertex="1">
          <mxGeometry x="270" y="130" width="80" height="40" as="geometry" />
        </mxCell>
        <mxCell id="VMeZs3ygDT83MNl5--wN-14" value="" style="endArrow=none;html=1;rounded=0;exitX=1;exitY=0.5;exitDx=0;exitDy=0;entryX=0;entryY=0.5;entryDx=0;entryDy=0;" parent="1" source="VMeZs3ygDT83MNl5--wN-13" target="VMeZs3ygDT83MNl5--wN-10" edge="1">
          <mxGeometry width="50" height="50" relative="1" as="geometry">
            <mxPoint x="290" y="40" as="sourcePoint" />
            <mxPoint x="403" y="50" as="targetPoint" />
          </mxGeometry>
        </mxCell>
        <mxCell id="VMeZs3ygDT83MNl5--wN-15" value="Családfa része" style="rhombus;whiteSpace=wrap;html=1;" parent="1" vertex="1">
          <mxGeometry x="393.45" y="160" width="93.11" height="50" as="geometry" />
        </mxCell>
        <mxCell id="VMeZs3ygDT83MNl5--wN-16" value="" style="endArrow=none;html=1;rounded=0;exitX=0.5;exitY=0;exitDx=0;exitDy=0;entryX=0.5;entryY=1;entryDx=0;entryDy=0;" parent="1" source="VMeZs3ygDT83MNl5--wN-15" target="VMeZs3ygDT83MNl5--wN-10" edge="1">
          <mxGeometry width="50" height="50" relative="1" as="geometry">
            <mxPoint x="320" y="100" as="sourcePoint" />
            <mxPoint x="393" y="50" as="targetPoint" />
          </mxGeometry>
        </mxCell>
        <mxCell id="VMeZs3ygDT83MNl5--wN-17" value="" style="endArrow=none;html=1;rounded=0;exitX=0.5;exitY=0;exitDx=0;exitDy=0;entryX=0.5;entryY=1;entryDx=0;entryDy=0;" parent="1" source="SWTcsgD4l01JTWnC3AS4-1" target="VMeZs3ygDT83MNl5--wN-15" edge="1">
          <mxGeometry width="50" height="50" relative="1" as="geometry">
            <mxPoint x="449" y="115" as="sourcePoint" />
            <mxPoint x="449" y="65" as="targetPoint" />
          </mxGeometry>
        </mxCell>
        <mxCell id="m_e9KsyyT7LO2ownDKzG-1" value="Szerkeszti" style="rhombus;whiteSpace=wrap;html=1;" parent="1" vertex="1">
          <mxGeometry x="570" y="70.00000000000003" width="70" height="50" as="geometry" />
        </mxCell>
        <mxCell id="m_e9KsyyT7LO2ownDKzG-2" value="" style="endArrow=none;html=1;rounded=0;exitX=1;exitY=0.5;exitDx=0;exitDy=0;entryX=0;entryY=0.5;entryDx=0;entryDy=0;" parent="1" source="VMeZs3ygDT83MNl5--wN-10" target="m_e9KsyyT7LO2ownDKzG-1" edge="1">
          <mxGeometry width="50" height="50" relative="1" as="geometry">
            <mxPoint x="360" y="160" as="sourcePoint" />
            <mxPoint x="401" y="105" as="targetPoint" />
          </mxGeometry>
        </mxCell>
        <mxCell id="m_e9KsyyT7LO2ownDKzG-3" value="" style="endArrow=none;html=1;rounded=0;exitX=0;exitY=0.5;exitDx=0;exitDy=0;entryX=1;entryY=0.5;entryDx=0;entryDy=0;" parent="1" source="SWTcsgD4l01JTWnC3AS4-41" target="m_e9KsyyT7LO2ownDKzG-1" edge="1">
          <mxGeometry width="50" height="50" relative="1" as="geometry">
            <mxPoint x="360" y="160" as="sourcePoint" />
            <mxPoint x="401" y="105" as="targetPoint" />
          </mxGeometry>
        </mxCell>
        <mxCell id="m_e9KsyyT7LO2ownDKzG-8" value="" style="endArrow=none;html=1;rounded=0;entryX=0.5;entryY=1;entryDx=0;entryDy=0;exitX=0.5;exitY=0;exitDx=0;exitDy=0;" parent="1" source="SWTcsgD4l01JTWnC3AS4-30" target="SWTcsgD4l01JTWnC3AS4-37" edge="1">
          <mxGeometry width="50" height="50" relative="1" as="geometry">
            <mxPoint x="450" y="370" as="sourcePoint" />
            <mxPoint x="450" y="322" as="targetPoint" />
          </mxGeometry>
        </mxCell>
        <mxCell id="m_e9KsyyT7LO2ownDKzG-9" value="&lt;u&gt;id&lt;/u&gt;" style="ellipse;whiteSpace=wrap;html=1;" parent="1" vertex="1">
          <mxGeometry x="310.01" y="510" width="80" height="40" as="geometry" />
        </mxCell>
        <mxCell id="m_e9KsyyT7LO2ownDKzG-10" value="" style="endArrow=none;html=1;rounded=0;entryX=0.5;entryY=1;entryDx=0;entryDy=0;exitX=1;exitY=0;exitDx=0;exitDy=0;" parent="1" source="m_e9KsyyT7LO2ownDKzG-9" target="SWTcsgD4l01JTWnC3AS4-30" edge="1">
          <mxGeometry width="50" height="50" relative="1" as="geometry">
            <mxPoint x="464" y="520" as="sourcePoint" />
            <mxPoint x="450" y="500" as="targetPoint" />
          </mxGeometry>
        </mxCell>
      </root>
    </mxGraphModel>
  </diagram>
</mxfile>
